Coordinates
version=1
nRows=16
nColumns=63
inDegrees=yes

Units are S.I. units (second, meters, Newtons, ...)
If the header above contains a line with 'inDegrees', this indicates whether rotational values are in degrees (yes) or radians (no).

endheader
time	pelvis_tilt	pelvis_list	pelvis_rotation	pelvis_tx	pelvis_ty	pelvis_tz	hip_flexion_r	hip_adduction_r	hip_rotation_r	knee_angle_r	knee_angle_r_beta	ankle_angle_r	subtalar_angle_r	mtp_angle_r	hip_flexion_l	hip_adduction_l	hip_rotation_l	knee_angle_l	knee_angle_l_beta	ankle_angle_l	subtalar_angle_l	mtp_angle_l	L5_S1_Flex_Ext	L5_S1_Lat_Bending	L5_S1_axial_rotation	L4_L5_Flex_Ext	L4_L5_Lat_Bending	L4_L5_axial_rotation	L3_L4_Flex_Ext	L3_L4_Lat_Bending	L3_L4_axial_rotation	L2_L3_Flex_Ext	L2_L3_Lat_Bending	L2_L3_axial_rotation	L1_L2_Flex_Ext	L1_L2_Lat_Bending	L1_L2_axial_rotation	L1_T12_Flex_Ext	L1_T12_Lat_Bending	L1_T12_axial_rotation	Abs_r3	Abs_r2	Abs_r1	Abs_t1	Abs_t2	neck_flexion	neck_bending	neck_rotation	arm_flex_r	arm_add_r	arm_rot_r	elbow_flex_r	pro_sup_r	wrist_flex_r	wrist_dev_r	arm_flex_l	arm_add_l	arm_rot_l	elbow_flex_l	pro_sup_l	wrist_flex_l	wrist_dev_l
0.000000	4.634067	-5.608619	92.795089	0.198703	0.951185	0.638558	4.245263	-0.513903	-11.193953	6.614812	0.115450	20.711808	17.434055	0.000000	7.045111	-0.918845	-4.029424	9.986674	0.174300	21.187780	8.397982	0.000000	-0.066967	0.165211	-1.189006	-0.124365	0.219731	-1.263318	-0.110021	0.401694	-1.263318	-0.076537	0.401694	-1.040380	-0.062186	0.336898	-0.966067	-0.038265	0.255912	-0.891754	-0.478341	1.868900	-6.612893	0.000000	0.000000	11.090538	0.111516	11.378829	8.133616	-12.809291	47.336476	63.496860	71.944378	16.893281	20.013367	12.871822	-15.376392	59.709317	63.332843	49.193262	-11.821797	0.818616
0.017544	4.476621	-5.471708	92.583160	0.198549	0.951732	0.638267	4.087635	-0.680755	-10.753048	6.566372	0.114605	21.237173	17.204683	0.000000	6.899892	-0.573120	-2.502166	9.832504	0.171610	20.743758	5.390311	0.000000	-0.066061	0.153642	-1.331701	-0.122683	0.204343	-1.414932	-0.108532	0.373564	-1.414932	-0.075501	0.373564	-1.165238	-0.061345	0.313306	-1.082007	-0.037747	0.237991	-0.998776	-0.471869	1.738025	-7.406520	0.000000	0.000000	10.938308	0.366254	12.348396	8.988363	-12.241491	48.646300	62.167312	70.678247	16.921478	20.986291	11.685820	-15.493761	57.734375	63.475262	49.836738	-10.437816	3.123360
0.035088	4.338632	-5.368709	92.428929	0.198431	0.952144	0.638060	3.971623	-0.827194	-10.419150	6.534866	0.114055	21.665091	17.015165	0.000000	6.797744	-0.282273	-1.290979	9.715393	0.169566	20.421431	3.003846	0.000000	-0.065348	0.142413	-1.442556	-0.121358	0.189409	-1.532716	-0.107360	0.346262	-1.532716	-0.074686	0.346262	-1.262237	-0.060682	0.290408	-1.172077	-0.037340	0.220597	-1.081917	-0.466775	1.611001	-8.023064	0.000000	0.000000	10.850958	0.584526	13.087444	9.647591	-11.782605	49.656462	61.117409	69.689230	16.888540	21.756563	10.778407	-15.600757	56.224108	63.584965	50.422633	-9.311268	4.984251
0.052632	4.219764	-5.296093	92.325838	0.198345	0.952435	0.637925	3.892640	-0.953400	-10.179607	6.517379	0.113750	22.005001	16.861981	0.000000	6.733377	-0.043041	-0.369480	9.631375	0.168099	20.209258	1.184573	0.000000	-0.064798	0.131674	-1.524317	-0.120336	0.175127	-1.619587	-0.106456	0.320153	-1.619587	-0.074057	0.320153	-1.333778	-0.060171	0.268510	-1.238508	-0.037025	0.203963	-1.143238	-0.462843	1.489525	-8.477796	0.000000	0.000000	10.821280	0.769147	13.616887	10.128517	-11.424063	50.395724	60.322730	68.946256	16.796824	22.342812	10.122051	-15.696676	55.131724	63.664707	50.955625	-8.416262	6.447819
0.070175	4.119681	-5.250329	92.267326	0.198289	0.952617	0.637849	3.846100	-1.059553	-10.021766	6.510998	0.113638	22.266343	16.741607	0.000000	6.701503	0.147838	0.288718	9.576481	0.167141	20.095702	-0.121518	0.000000	-0.064380	0.121576	-1.579731	-0.119561	0.161697	-1.678464	-0.105770	0.295601	-1.678464	-0.073580	0.295601	-1.382264	-0.059783	0.247919	-1.283531	-0.036787	0.188322	-1.184798	-0.459862	1.375296	-8.785989	0.000000	0.000000	10.842064	0.922931	13.957634	10.448357	-11.157293	50.892847	59.758856	68.418253	16.648689	22.763669	9.689219	-15.780811	54.410431	63.717245	51.440394	-7.726905	7.560597
0.087719	4.038044	-5.227887	92.246833	0.198259	0.952704	0.637819	3.827417	-1.145833	-9.932971	6.512806	0.113670	22.458554	16.650523	0.000000	6.696831	0.293627	0.710000	9.546745	0.166622	20.069222	-0.968440	0.000000	-0.064066	0.112269	-1.611542	-0.118977	0.149318	-1.712264	-0.105254	0.272971	-1.712264	-0.073221	0.272971	-1.410099	-0.059491	0.228939	-1.309378	-0.036607	0.173905	-1.208657	-0.457615	1.270011	-8.962914	0.000000	0.000000	10.906102	1.048690	14.130598	10.624327	-10.973727	51.176595	59.401367	68.074151	16.446496	23.037766	9.452381	-15.852456	54.013439	63.745333	51.881620	-7.217306	8.369116
0.105263	3.974519	-5.225237	92.257800	0.198250	0.952709	0.637824	3.832004	-1.212420	-9.900571	6.519891	0.113794	22.591075	16.585206	0.000000	6.714071	0.397589	0.920750	9.538197	0.166473	20.118279	-1.410205	0.000000	-0.063824	0.103903	-1.622498	-0.118528	0.138190	-1.723904	-0.104857	0.252629	-1.723904	-0.072945	0.252629	-1.419685	-0.059267	0.211878	-1.318279	-0.036469	0.160945	-1.216873	-0.455891	1.175366	-9.023845	0.000000	0.000000	11.006186	1.149241	14.156691	10.673644	-10.864793	51.275727	59.225843	67.882880	16.192602	23.183733	9.384004	-15.910906	53.893954	63.751727	52.283981	-6.861575	8.919906
0.122807	3.928768	-5.238849	92.293668	0.198259	0.952646	0.637852	3.855277	-1.259495	-9.911910	6.529338	0.113958	22.673342	16.542133	0.000000	6.747935	0.462988	0.947355	9.546872	0.166624	20.231334	-1.500824	0.000000	-0.063626	0.096627	-1.615343	-0.118160	0.128513	-1.716302	-0.104531	0.234938	-1.716302	-0.072718	0.234938	-1.413425	-0.059083	0.197041	-1.312466	-0.036356	0.149675	-1.211507	-0.454475	1.093059	-8.984054	0.000000	0.000000	11.135106	1.227395	14.056824	10.613524	-10.821922	51.219006	59.207864	67.813367	15.889367	23.220200	9.456556	-15.955455	54.005186	63.739182	52.652157	-6.633819	9.259499
0.140351	3.900454	-5.265193	92.347876	0.198283	0.952528	0.637889	3.892648	-1.287236	-9.954336	6.538233	0.114114	22.714796	16.517784	0.000000	6.793132	0.493085	0.816200	9.568800	0.167007	20.396847	-1.294310	0.000000	-0.063441	0.090591	-1.592825	-0.117816	0.120487	-1.692376	-0.104227	0.220264	-1.692376	-0.072507	0.220264	-1.393722	-0.058911	0.184734	-1.294170	-0.036250	0.140326	-1.194619	-0.453153	1.024788	-8.858814	0.000000	0.000000	11.285654	1.285968	13.851909	10.461185	-10.836543	51.035193	59.323009	67.834543	15.539150	23.165798	9.642507	-15.985398	54.300343	63.710453	52.990827	-6.508147	9.434427
0.157895	3.889241	-5.300737	92.413865	0.198317	0.952369	0.637924	3.939532	-1.295825	-10.015195	6.543661	0.114208	22.724875	16.508636	0.000000	6.844373	0.491145	0.553669	9.600016	0.167552	20.603280	-0.844674	0.000000	-0.063239	0.085947	-1.557688	-0.117441	0.114309	-1.655044	-0.103896	0.208971	-1.655044	-0.072276	0.208971	-1.362977	-0.058724	0.175263	-1.265622	-0.036135	0.133132	-1.168266	-0.451711	0.972249	-8.663396	0.000000	0.000000	11.450621	1.327772	13.562859	10.233842	-10.900087	50.753050	59.546859	67.915336	15.144310	23.039158	9.914324	-16.000028	54.732632	63.668296	53.304670	-6.458667	9.491221
0.175439	3.894793	-5.341953	92.485075	0.198359	0.952182	0.637944	3.991342	-1.285441	-10.081833	6.542707	0.114192	22.713017	16.511166	0.000000	6.896368	0.460429	0.186148	9.636550	0.168190	20.839091	-0.205929	0.000000	-0.062991	0.082843	-1.512680	-0.116980	0.110182	-1.607223	-0.103487	0.201425	-1.607223	-0.071992	0.201425	-1.323595	-0.058493	0.168934	-1.229053	-0.035993	0.128324	-1.134510	-0.449936	0.937141	-8.413074	0.000000	0.000000	11.622799	1.355623	13.210584	9.948712	-11.003982	50.401339	59.854994	68.024675	14.707206	22.858909	10.244477	-15.998640	55.255263	63.615467	53.598366	-6.459488	9.476412
0.192982	3.933483	-5.384000	92.536406	0.198344	0.952009	0.637906	4.040184	-1.239039	-10.098464	6.517743	0.113756	22.693630	16.519684	0.000000	6.935205	0.400123	-0.149637	9.671774	0.168804	21.063310	0.383891	0.000000	-0.061485	0.083671	-1.468185	-0.114184	0.111283	-1.559946	-0.101014	0.203439	-1.559946	-0.070271	0.203439	-1.284662	-0.057095	0.170623	-1.192900	-0.035132	0.129607	-1.101139	-0.439181	0.946508	-8.165603	0.000000	0.000000	11.735419	1.371569	12.848750	9.706769	-11.147374	50.152835	60.177792	68.119130	14.234000	22.601545	10.526439	-15.946470	55.606333	63.555824	54.027906	-6.235206	9.870512
0.210526	3.979480	-5.413655	92.567205	0.198362	0.951851	0.637841	4.079558	-1.183053	-10.097921	6.486362	0.113208	22.702388	16.551995	0.000000	6.950749	0.323557	-0.562435	9.698311	0.169267	21.282617	1.055907	0.000000	-0.061718	0.085315	-1.416974	-0.114616	0.113469	-1.505535	-0.101396	0.207435	-1.505535	-0.070537	0.207435	-1.239853	-0.057311	0.173974	-1.151292	-0.035265	0.132153	-1.062731	-0.440843	0.965099	-7.880786	0.000000	0.000000	11.880379	1.383126	12.458918	9.403223	-11.295512	49.831762	60.531038	68.174301	13.720096	22.332001	10.804734	-15.884079	55.940506	63.489849	54.373800	-5.995535	10.241773
0.228070	4.045900	-5.441118	92.592328	0.198366	0.951687	0.637708	4.107072	-1.102900	-10.044746	6.428827	0.112204	22.725341	16.549623	0.000000	6.958820	0.214365	-1.111918	9.725607	0.169744	21.527499	1.916754	0.000000	-0.060924	0.089815	-1.365497	-0.113141	0.119454	-1.450840	-0.100091	0.218376	-1.450840	-0.069630	0.218376	-1.194810	-0.056574	0.183150	-1.109466	-0.034812	0.139123	-1.024123	-0.435172	1.016002	-7.594484	0.000000	0.000000	12.025887	1.397936	12.089183	9.070000	-11.463676	49.502930	60.921072	67.969774	13.135755	22.259676	11.048704	-15.799259	56.213527	63.441493	54.709972	-5.820111	10.689751
0.245614	4.120135	-5.459083	92.603051	0.198383	0.951545	0.637509	4.118122	-1.011848	-9.952832	6.355199	0.110919	22.764981	16.535496	0.000000	6.944851	0.099055	-1.626616	9.734939	0.169907	21.748212	2.712475	0.000000	-0.060366	0.095444	-1.313722	-0.112106	0.126940	-1.395829	-0.099175	0.232062	-1.395829	-0.068992	0.232062	-1.149506	-0.056056	0.194629	-1.067399	-0.034493	0.147842	-0.985291	-0.431189	1.079678	-7.306526	0.000000	0.000000	12.165968	1.422322	11.742515	8.723971	-11.629453	49.170104	61.295715	67.715089	12.540624	22.226849	11.249325	-15.703244	56.404066	63.402906	55.071162	-5.610028	11.206452
0.263158	4.201175	-5.475255	92.613856	0.198404	0.951420	0.637233	4.121870	-0.914061	-9.876180	6.276114	0.109539	22.826722	16.555508	0.000000	6.919574	-0.020435	-2.093088	9.725602	0.169744	21.940463	3.440459	0.000000	-0.058320	0.102176	-1.268168	-0.108306	0.135894	-1.347428	-0.095813	0.248430	-1.347428	-0.066654	0.248430	-1.109647	-0.054156	0.208357	-1.030386	-0.033324	0.158270	-0.951126	-0.416572	1.155832	-7.053170	0.000000	0.000000	12.283831	1.450630	11.444695	8.388306	-11.779270	48.857873	61.629481	67.468879	11.966327	22.238395	11.397042	-15.611489	56.553939	63.378547	55.347757	-5.445500	11.671489
